# Blender v3.1.2 OBJ File: ''
# www.blender.org
mtllib car2.mtl
o CAR
v -0.910733 2.153860 -0.312128
v 0.910733 2.153860 -0.312128
v 0.910733 2.054755 -1.309005
v -0.910733 2.054755 -1.309005
v -0.473647 1.468726 0.545641
v -0.473647 1.324864 1.545641
v -0.473647 1.064029 1.545641
v -0.473647 1.064029 0.545641
v 0.473647 1.468726 0.545641
v 0.473647 1.064029 0.545641
v -0.365554 1.971976 0.623089
v -0.365554 1.971976 1.359872
v 0.365554 1.971976 1.359872
v 0.365554 1.971976 0.623089
v 0.473647 1.324864 1.545641
v 0.473647 1.064029 1.545641
v 1.232743 1.402748 0.382353
v -1.232743 1.402748 0.382353
v 1.319181 1.275079 -2.906246
v -1.319181 1.275079 -2.906246
v -1.069936 1.647421 -1.797967
v 1.069936 1.647421 -1.797967
v -1.248545 1.232628 -3.114316
v 1.248545 1.232628 -3.114316
v 1.248545 0.456832 -3.274220
v -1.248545 0.456832 -3.274220
v -0.505959 1.064029 1.456960
v -0.505959 1.064029 0.634321
v 0.505959 1.064029 1.456960
v 0.505959 1.064029 0.634321
v -0.365554 1.564216 1.359872
v -0.365554 1.564216 0.623089
v 0.365554 1.564216 1.359872
v 0.365554 1.564216 0.623089
v -0.365554 1.633611 1.359872
v -0.365554 1.633611 0.623089
v 0.365554 1.633611 1.359872
v 0.365554 1.633611 0.623089
v -0.468931 1.602172 0.623089
v -0.468931 1.602172 1.359872
v -0.535163 1.971976 1.359872
v -0.535163 1.971976 0.623089
v 0.468931 1.602172 1.359872
v 0.468931 1.602172 0.623089
v 0.535163 1.971976 0.623089
v 0.535163 1.971976 1.359872
v 0.365554 1.602172 0.541738
v -0.365554 1.602172 0.541738
v -0.365554 1.971976 0.541738
v 0.365554 1.971976 0.541738
v -0.468931 1.602172 0.541738
v -0.535163 1.971976 0.541738
v 0.535163 1.971976 0.541738
v 0.468931 1.602172 0.541738
v -0.365554 1.602172 1.412751
v -0.365554 1.654696 1.417330
v -0.402408 1.655122 1.417407
v -0.468931 1.602172 1.408916
v 0.365554 1.602172 1.412751
v 0.365554 1.654696 1.417330
v 0.468931 1.602172 1.409761
v 0.403360 1.653900 1.417186
v 0.365554 1.971976 1.477552
v 0.365554 1.915788 1.464571
v 0.441612 1.917238 1.464833
v 0.535163 1.971976 1.484006
v -0.365554 1.971976 1.477552
v -0.365554 1.915788 1.464571
v -0.535163 1.971976 1.482609
v -0.439662 1.914909 1.464412
v -0.365554 1.654696 1.289134
v 0.365554 1.654696 1.289134
v 0.365554 1.915788 1.336375
v -0.365554 1.915788 1.336375
v -0.439662 1.914909 1.336216
v -0.402408 1.655122 1.289211
v 0.403360 1.653900 1.288990
v 0.441612 1.917238 1.336637
v -0.976997 2.070415 -0.207246
v 0.976997 2.070415 -0.207246
v 0.943495 1.970932 -1.409625
v -0.943495 1.970932 -1.409625
v -1.096845 1.445300 -3.090313
v 1.096845 1.445300 -3.090313
v 1.110075 1.402848 -3.193198
v -1.110075 1.402848 -3.193198
v 1.319181 0.275079 -2.782711
v -1.319181 0.275079 -2.782711
v -1.215896 0.515181 2.365649
v -1.319181 0.275079 2.241971
v 1.319181 0.275079 2.243619
v 1.217622 0.514043 2.365230
v -1.226648 1.038140 2.558627
v -1.326498 1.158110 2.478881
v 1.223278 1.035688 2.557722
v 1.326498 1.158110 2.478881
v -1.215896 0.515181 2.205048
v 1.217622 0.514043 2.204628
v 1.223278 1.035688 2.397120
v -1.226648 1.038140 2.398025
v 1.415099 0.814661 0.734645
v 1.415099 0.372106 0.633634
v 0.906885 0.372106 0.633634
v 0.906885 0.814661 0.734645
v 1.415099 0.017205 0.916659
v 0.906885 0.017205 0.916659
v 1.415099 0.017205 1.370595
v 0.906885 0.017205 1.370595
v 1.415099 0.372106 1.653619
v 0.906885 0.372106 1.653619
v 1.415099 0.814661 1.552609
v 0.906885 0.814661 1.552609
v 1.415099 1.011617 1.143627
v 0.906885 1.011617 1.143627
v 1.415099 0.488509 1.143627
v 0.906885 0.488509 1.143627
v -0.907104 0.814661 0.816671
v -0.907104 0.372106 0.715660
v -1.415317 0.372106 0.715660
v -1.415317 0.814661 0.816671
v -0.907104 0.017205 0.998685
v -1.415317 0.017205 0.998685
v -0.907104 0.017205 1.452621
v -1.415317 0.017205 1.452621
v -0.907104 0.372106 1.735645
v -1.415317 0.372106 1.735645
v -0.907104 0.814661 1.634635
v -1.415317 0.814661 1.634635
v -0.907104 1.011617 1.225653
v -1.415317 1.011617 1.225653
v -0.907104 0.488509 1.225653
v -1.415317 0.488509 1.225653
v 1.415099 0.814661 -2.423461
v 1.415099 0.372106 -2.524471
v 0.906885 0.372106 -2.524471
v 0.906885 0.814661 -2.423461
v 1.415099 0.017205 -2.241447
v 0.906885 0.017205 -2.241447
v 1.415099 0.017205 -1.787511
v 0.906885 0.017205 -1.787511
v 1.415099 0.372106 -1.504487
v 0.906885 0.372106 -1.504487
v 1.415099 0.814661 -1.605497
v 0.906885 0.814661 -1.605497
v 1.415099 1.011617 -2.014479
v 0.906885 1.011617 -2.014479
v 1.415099 0.488509 -2.014479
v 0.906885 0.488509 -2.014479
v -0.907104 0.814661 -2.341435
v -0.907104 0.372106 -2.442445
v -1.415317 0.372106 -2.442445
v -1.415317 0.814661 -2.341435
v -0.907104 0.017205 -2.159421
v -1.415317 0.017205 -2.159421
v -0.907104 0.017205 -1.705485
v -1.415317 0.017205 -1.705485
v -0.907104 0.372106 -1.422460
v -1.415317 0.372106 -1.422460
v -0.907104 0.814661 -1.523471
v -1.415317 0.814661 -1.523471
v -0.907104 1.011617 -1.932453
v -1.415317 1.011617 -1.932453
v -0.907104 0.488509 -1.932453
v -1.415317 0.488509 -1.932453
vt 0.698399 0.796795
vt 0.780575 0.692087
vt 0.852298 0.748361
vt 0.770134 0.853076
vt 0.000000 0.361744
vt 0.170468 0.382762
vt 0.171364 0.427097
vt 0.001390 0.430532
vt 0.790004 0.167515
vt 0.755776 0.105233
vt 0.788915 0.087022
vt 0.823142 0.149304
vt 0.136811 0.259793
vt 0.187322 0.283481
vt 0.149415 0.331466
vt 0.116268 0.289216
vt 0.299752 0.380149
vt 0.300648 0.424484
vt 0.469232 0.352261
vt 0.470622 0.421049
vt 0.675054 0.650182
vt 0.721876 0.616119
vt 0.610606 0.757829
vt 0.632608 0.704264
vt 1.000000 0.826309
vt 0.880992 0.977990
vt 0.801178 0.907340
vt 0.912389 0.765599
vt 0.114414 0.157447
vt 0.109268 0.016167
vt 0.161191 0.029569
vt 0.159618 0.142347
vt 0.833632 0.004983
vt 0.831795 0.013419
vt 0.795009 0.080907
vt 0.904525 0.000000
vt 0.907524 0.008095
vt 0.916369 0.155534
vt 0.831571 0.147437
vt 0.908263 0.152562
vt 0.090412 0.183141
vt 0.183700 0.163299
vt 0.199395 0.216020
vt 0.114505 0.223607
vt 0.263018 0.154818
vt 0.260237 0.205905
vt 0.035230 0.365937
vt 0.026151 0.272286
vt 0.072041 0.279771
vt 0.087387 0.356483
vt 0.201792 0.224026
vt 0.117594 0.227331
vt 0.262181 0.212639
vt 0.076956 0.281689
vt 0.095803 0.356771
vt 0.124958 0.230495
vt 0.199093 0.232664
vt 0.188474 0.270379
vt 0.140736 0.250553
vt 0.104864 0.353794
vt 0.082337 0.289053
vt 0.109308 0.293964
vt 0.137377 0.337708
vt 0.083758 0.278752
vt 0.116450 0.234167
vt 0.131468 0.257038
vt 0.110551 0.284405
vt 0.121811 0.234380
vt 0.135983 0.251026
vt 0.106748 0.290179
vt 0.085600 0.283789
vt 0.205715 0.231790
vt 0.208347 0.238262
vt 0.206299 0.241871
vt 0.202322 0.236039
vt 0.264115 0.218706
vt 0.265825 0.223958
vt 0.115225 0.364553
vt 0.106199 0.362663
vt 0.109621 0.357526
vt 0.116857 0.361631
vt 0.154634 0.340553
vt 0.156615 0.344858
vt 0.147387 0.348969
vt 0.144955 0.344884
vt 0.196174 0.285601
vt 0.200834 0.286327
vt 0.197180 0.275292
vt 0.201888 0.275958
vt 0.215732 0.250021
vt 0.269859 0.237386
vt 0.274822 0.264452
vt 0.217847 0.278667
vt 0.211893 0.279349
vt 0.213844 0.250650
vt 0.156088 0.364449
vt 0.126838 0.374255
vt 0.126984 0.371445
vt 0.154053 0.358518
vt 0.210911 0.290601
vt 0.163823 0.354512
vt 0.680332 0.788777
vt 0.768496 0.676454
vt 0.734232 0.280456
vt 0.774120 0.174690
vt 0.779172 0.186521
vt 0.752838 0.273803
vt 0.864664 0.751909
vt 0.776523 0.864243
vt 0.194461 0.913893
vt 0.287680 0.849957
vt 0.285651 0.869612
vt 0.207155 0.915982
vt 0.094903 0.163248
vt 0.020369 0.074121
vt 0.026700 0.070824
vt 0.099102 0.157715
vt 0.109992 0.000000
vt 0.189999 0.014065
vt 0.192680 0.156386
vt 0.116814 0.173230
vt 0.089636 0.182891
vt 0.000000 0.075658
vt 0.014938 0.052048
vt 0.029104 0.055924
vt 0.532337 0.142484
vt 0.525924 0.148796
vt 0.523203 0.008150
vt 0.529736 0.013423
vt 0.374366 0.591803
vt 0.392937 0.585844
vt 0.442864 0.626027
vt 0.437487 0.644540
vt 0.454092 0.644117
vt 0.553335 0.484534
vt 0.573971 0.491117
vt 0.502778 0.445429
vt 0.504113 0.426293
vt 0.570416 0.474886
vt 0.000000 0.854416
vt 0.043060 0.935377
vt 0.436806 0.646504
vt 0.295510 0.774096
vt 0.670028 0.000000
vt 0.758918 0.022532
vt 0.754619 0.129031
vt 0.662420 0.306133
vt 0.392937 0.585844
vt 0.502778 0.445429
vt 0.553335 0.484534
vt 0.442864 0.626027
vt 0.603224 0.593472
vt 0.560423 0.648039
vt 0.145470 0.905831
vt 0.572166 0.473748
vt 0.459909 0.808070
vt 0.471363 0.808070
vt 0.471363 0.928644
vt 0.459909 0.928644
vt 0.482818 0.808070
vt 0.482818 0.928644
vt 0.494273 0.808070
vt 0.494273 0.928644
vt 0.505727 0.808070
vt 0.505727 0.928644
vt 0.517182 0.808070
vt 0.517182 0.928644
vt 0.528637 0.808070
vt 0.528637 0.928644
vt 0.540091 0.808070
vt 0.540091 0.928644
vt 0.794976 0.307825
vt 0.927165 0.337996
vt 0.829745 0.453907
vt 0.688969 0.392363
vt 0.688969 0.527951
vt 0.794976 0.612489
vt 0.927165 0.582318
vt 0.985995 0.460157
vt 0.924511 0.584563
vt 0.792322 0.614734
vt 0.827091 0.456152
vt 0.686315 0.530196
vt 0.686315 0.394608
vt 0.792322 0.310070
vt 0.924511 0.340241
vt 0.983341 0.462402
vt 0.460838 0.810698
vt 0.472027 0.810698
vt 0.472027 0.928477
vt 0.460838 0.928477
vt 0.483217 0.810698
vt 0.483217 0.928477
vt 0.494406 0.810698
vt 0.494406 0.928477
vt 0.505594 0.810698
vt 0.505594 0.928477
vt 0.516783 0.810698
vt 0.516783 0.928477
vt 0.527973 0.810698
vt 0.527973 0.928477
vt 0.539162 0.810698
vt 0.539162 0.928477
vt 0.792515 0.309055
vt 0.924704 0.339226
vt 0.827284 0.455137
vt 0.686508 0.393593
vt 0.686508 0.529181
vt 0.792515 0.613719
vt 0.924704 0.583548
vt 0.983534 0.461387
vt 0.926062 0.584563
vt 0.793873 0.614734
vt 0.828642 0.456152
vt 0.687866 0.530196
vt 0.687866 0.394608
vt 0.793873 0.310070
vt 0.926062 0.340241
vt 0.984892 0.462402
vt 0.459541 0.809977
vt 0.471100 0.809977
vt 0.471100 0.931659
vt 0.459541 0.931659
vt 0.482660 0.809977
vt 0.482660 0.931659
vt 0.494220 0.809977
vt 0.494220 0.931659
vt 0.505780 0.809977
vt 0.505780 0.931659
vt 0.517340 0.809977
vt 0.517340 0.931659
vt 0.528900 0.809977
vt 0.528900 0.931659
vt 0.540459 0.809977
vt 0.540459 0.931659
vt 0.793746 0.306594
vt 0.925935 0.336765
vt 0.828515 0.452676
vt 0.687739 0.391132
vt 0.687739 0.526720
vt 0.793746 0.611258
vt 0.925935 0.581087
vt 0.984765 0.458926
vt 0.926652 0.583013
vt 0.794463 0.613184
vt 0.829232 0.454602
vt 0.688456 0.528646
vt 0.688456 0.393058
vt 0.794463 0.308520
vt 0.926652 0.338691
vt 0.985482 0.460852
vt 0.456482 0.805378
vt 0.468916 0.805378
vt 0.468916 0.936258
vt 0.456482 0.936258
vt 0.481350 0.805378
vt 0.481350 0.936258
vt 0.493783 0.805378
vt 0.493783 0.936258
vt 0.506217 0.805378
vt 0.506217 0.936258
vt 0.518650 0.805378
vt 0.518650 0.936258
vt 0.531084 0.805378
vt 0.531084 0.936258
vt 0.543518 0.805378
vt 0.543518 0.936258
vt 0.792515 0.309055
vt 0.924704 0.339226
vt 0.827284 0.455137
vt 0.686508 0.393593
vt 0.686508 0.529181
vt 0.792515 0.613719
vt 0.924704 0.583548
vt 0.983534 0.461387
vt 0.924704 0.579568
vt 0.792515 0.609739
vt 0.827284 0.451157
vt 0.686508 0.525201
vt 0.686508 0.389613
vt 0.792515 0.305075
vt 0.924704 0.335246
vt 0.983534 0.457407
vn 0.0000 0.9951 -0.0989
vn 1.0000 0.0000 0.0000
vn 0.0000 -0.0000 1.0000
vn 0.0000 1.0000 0.0000
vn 0.0000 0.0000 -1.0000
vn -1.0000 0.0000 0.0000
vn 0.0630 0.9979 -0.0159
vn 0.0812 0.9918 0.0985
vn -0.0812 0.9918 0.0985
vn -0.0630 0.9979 -0.0159
vn 0.0000 0.9479 -0.3185
vn 0.0000 0.2019 -0.9794
vn 0.0000 -1.0000 -0.0000
vn -0.9628 0.2703 0.0000
vn 0.0000 0.1905 0.9817
vn 0.9628 0.2703 0.0000
vn 0.0000 -0.0224 -0.9997
vn -0.9843 -0.1763 0.0000
vn 0.9843 -0.1763 0.0000
vn 0.2910 -0.9567 0.0000
vn 0.1923 -0.9615 -0.1965
vn 0.2826 -0.9590 -0.0192
vn -0.1923 -0.9615 -0.1964
vn -0.2910 -0.9567 0.0000
vn -0.2824 -0.9591 -0.0191
vn 0.0000 -0.9328 0.3605
vn 0.1477 -0.9711 0.1876
vn -0.1477 -0.9711 0.1876
vn -0.0024 -0.0886 0.9961
vn -0.0270 -0.1062 0.9940
vn 0.0019 -0.0881 0.9961
vn 0.0215 -0.1010 0.9947
vn -0.0036 -0.2300 0.9732
vn -0.0035 -0.2299 0.9732
vn -0.0249 -0.2589 0.9656
vn 0.0030 -0.2287 0.9735
vn 0.0204 -0.2494 0.9682
vn 0.0543 -0.1794 0.9823
vn -0.0691 -0.1776 0.9817
vn -0.0000 -0.1780 0.9840
vn -0.0162 -0.8723 -0.4887
vn 0.0161 -0.8720 -0.4892
vn 0.1491 -0.9449 -0.2915
vn -0.1480 -0.9457 -0.2893
vn 0.0058 1.0000 0.0000
vn 0.0059 -1.0000 0.0000
vn 0.0119 -0.9999 0.0000
vn 0.9899 0.1419 0.0000
vn 0.0116 0.9999 0.0000
vn 0.0210 0.9998 0.0000
vn -0.9896 0.1437 0.0000
vn 0.0191 -0.9998 0.0000
vn -0.0000 0.6722 0.7404
vn 0.0000 0.7825 0.6226
vn 0.9323 0.3594 -0.0400
vn 0.9331 0.3574 -0.0397
vn 0.8597 0.5074 -0.0589
vn 0.0000 0.7683 -0.6401
vn -0.9331 0.3574 -0.0397
vn -0.9323 0.3594 -0.0400
vn -0.8597 0.5074 -0.0589
vn 0.0000 0.9244 -0.3814
vn 0.9998 0.0139 -0.0128
vn 1.0000 -0.0035 -0.0087
vn 0.9804 0.0040 -0.1972
vn 0.0000 -0.9995 -0.0301
vn 0.0000 -0.9379 -0.3468
vn -1.0000 -0.0035 -0.0087
vn -0.9998 0.0139 -0.0128
vn -0.9804 0.0040 -0.1972
vn 0.0000 0.7342 0.6790
vn 0.7609 0.5764 -0.2979
vn 0.0000 -0.4205 -0.9073
vn -0.7609 0.5764 -0.2979
vn -0.0003 -0.4557 0.8901
vn -0.6133 -0.2381 0.7531
vn 0.0004 0.5475 0.8368
vn 0.6076 -0.2365 0.7582
vn -1.0000 -0.0038 -0.0007
vn -1.0000 -0.0001 -0.0007
vn -0.9140 0.4056 -0.0049
vn 1.0000 -0.0001 -0.0007
vn 1.0000 -0.0038 -0.0007
vn 0.8676 0.4971 -0.0117
vn 0.9140 0.4056 -0.0049
vn -0.0000 -0.3462 0.9382
vn -0.0266 0.9869 0.1590
vn 0.0266 0.9869 0.1590
vn 0.0386 0.9877 0.1513
vn -0.0386 0.9877 0.1513
vn 0.0005 1.0000 0.0000
vn -0.9999 0.0108 0.0000
vn -0.0010 -1.0000 0.0000
vn 0.9998 0.0206 0.0000
vn -0.8676 0.4971 -0.0117
vn 0.0000 0.6619 0.7496
vn 0.0000 0.2225 -0.9749
vn 0.0000 -0.6235 -0.7818
vn 0.0000 -0.6235 0.7818
vn 0.0000 0.2225 0.9749
vn 0.0000 0.9010 0.4339
vn 0.0000 0.9010 -0.4339
usemtl Default_OBJ
s 1
f 1/1/1 2/2/1 3/3/1 4/4/1
f 5/5/2 6/6/2 7/7/2 8/8/2
f 9/9/3 5/10/3 8/11/3 10/12/3
f 11/13/4 12/14/4 13/15/4 14/16/4
f 6/6/5 15/17/5 16/18/5 7/7/5
f 15/17/6 9/19/6 10/20/6 16/18/6
f 9/21/7 17/22/8 18/23/9 5/24/10
f 19/25/11 20/26/11 21/27/11 22/28/11
f 23/29/12 24/30/12 25/31/12 26/32/12
f 8/11/13 7/33/13 27/34/13 28/35/13
f 7/33/4 16/36/4 29/37/4 27/34/4
f 16/38/13 10/12/13 30/39/13 29/40/13
f 10/12/4 8/11/4 28/35/4 30/39/4
f 28/41/14 27/42/14 31/43/14 32/44/14
f 27/42/15 29/45/15 33/46/15 31/43/15
f 29/47/16 30/48/16 34/49/16 33/50/16
f 30/48/17 28/41/17 32/44/17 34/49/17
f 32/44/6 31/43/6 35/51/6 36/52/6
f 31/43/3 33/46/3 37/53/3 35/51/3
f 33/50/2 34/49/2 38/54/2 37/55/2
f 34/49/5 32/44/5 36/52/5 38/54/5
f 39/56/18 40/57/18 41/58/18 42/59/18
f 43/60/19 44/61/19 45/62/19 46/63/19
f 47/64/5 48/65/5 49/66/5 50/67/5
f 36/52/20 35/51/21 40/57/22 39/56/20
f 12/14/4 11/13/4 42/59/4 41/58/4
f 49/66/5 48/65/5 51/68/5 52/69/5
f 37/55/23 38/54/24 44/61/24 43/60/25
f 47/64/5 50/67/5 53/70/5 54/71/5
f 14/16/4 13/15/4 46/63/4 45/62/4
f 38/54/26 36/52/26 48/65/26 47/64/26
f 11/13/4 14/16/4 50/67/4 49/66/4
f 36/52/27 39/56/27 51/68/27 48/65/27
f 39/56/18 42/59/18 52/69/18 51/68/18
f 42/59/4 11/13/4 49/66/4 52/69/4
f 14/16/4 45/62/4 53/70/4 50/67/4
f 45/62/19 44/61/19 54/71/19 53/70/19
f 44/61/28 38/54/28 47/64/28 54/71/28
f 55/72/29 56/73/29 57/74/30 58/75/30
f 56/73/29 55/72/29 59/76/31 60/77/31
f 60/78/31 59/79/31 61/80/32 62/81/32
f 63/82/33 64/83/34 65/84/35 66/85/35
f 64/83/34 63/82/33 67/86/36 68/87/36
f 68/87/36 67/86/36 69/88/37 70/89/37
f 70/89/38 69/88/38 58/75/38 57/74/38
f 62/81/39 61/80/39 66/85/39 65/84/39
f 71/90/40 72/91/40 73/92/40 74/93/40
f 71/90/40 74/93/40 75/94/40 76/95/40
f 73/96/40 72/97/40 77/98/40 78/99/40
f 35/51/21 37/53/23 59/76/41 55/72/42
f 13/15/4 12/14/4 67/86/4 63/82/4
f 12/14/4 41/58/4 69/88/4 67/86/4
f 41/58/18 40/57/18 58/75/18 69/88/18
f 40/57/22 35/51/21 55/72/42 58/75/43
f 37/55/23 43/60/25 61/80/44 59/79/41
f 43/60/19 46/63/19 66/85/19 61/80/19
f 46/63/4 13/15/4 63/82/4 66/85/4
f 56/73/45 60/77/4 72/91/4 71/90/45
f 64/83/13 68/87/46 74/100/46 73/101/13
f 68/87/46 70/89/47 75/94/47 74/100/46
f 70/89/48 57/74/48 76/95/48 75/94/48
f 57/74/49 56/73/45 71/90/45 76/95/49
f 60/78/50 62/81/50 77/98/50 72/97/50
f 62/81/51 65/84/51 78/99/51 77/98/51
f 65/84/52 64/83/52 73/101/52 78/99/52
f 79/102/53 80/103/53 2/2/54 1/1/54
f 80/104/55 81/105/56 3/106/57 2/107/57
f 81/108/58 82/109/58 4/4/58 3/3/58
f 82/110/59 79/111/60 1/112/61 4/113/61
f 83/114/62 84/115/62 85/116/62 86/117/62
f 19/118/63 87/119/64 25/31/65 24/30/65
f 87/119/66 88/120/66 26/32/67 25/31/67
f 88/120/68 20/121/69 23/29/70 26/32/70
f 20/122/71 19/123/71 84/115/71 83/114/71
f 19/124/72 24/125/72 85/116/72 84/115/72
f 24/125/73 23/29/73 86/117/73 85/116/73
f 23/29/74 20/121/74 83/114/74 86/117/74
f 89/126/75 90/127/75 91/128/75 92/129/75
f 90/130/76 89/131/76 93/132/76 94/133/76
f 94/134/77 93/132/77 95/135/77 96/136/77
f 92/137/78 91/138/78 96/139/78 95/135/78
f 88/140/68 90/130/79 94/133/80 20/141/69
f 20/141/69 94/142/80 18/143/81
f 88/120/66 87/119/66 91/128/13 90/127/13
f 87/144/64 19/145/63 96/139/82 91/138/83
f 19/145/63 22/146/84 17/147/85
f 97/148/86 98/149/86 99/150/86 100/151/86
f 94/134/87 96/136/88 15/152/89 6/153/90
f 94/134/87 6/153/90 5/24/10 18/23/9
f 96/136/88 17/22/8 9/21/7 15/152/89
f 89/131/91 92/137/91 98/149/91 97/148/91
f 92/137/92 95/135/92 99/150/92 98/149/92
f 95/135/93 93/132/93 100/151/93 99/150/93
f 93/132/94 89/131/94 97/148/94 100/151/94
f 20/141/69 18/143/81 21/154/95
f 19/145/63 17/147/85 96/155/82
f 18/23/96 17/22/96 80/103/53 79/102/53
f 17/147/85 22/146/84 81/105/56 80/104/55
f 22/28/58 21/27/58 82/109/58 81/108/58
f 21/154/95 18/143/81 79/111/60 82/110/59
f 101/156/97 102/157/97 103/158/97 104/159/97
f 102/157/98 105/160/98 106/161/98 103/158/98
f 105/160/13 107/162/13 108/163/13 106/161/13
f 107/162/99 109/164/99 110/165/99 108/163/99
f 109/164/100 111/166/100 112/167/100 110/165/100
f 111/166/101 113/168/101 114/169/101 112/167/101
f 113/168/102 101/170/102 104/171/102 114/169/102
f 102/172/2 101/173/2 115/174/2
f 105/175/2 102/172/2 115/174/2
f 107/176/2 105/175/2 115/174/2
f 109/177/2 107/176/2 115/174/2
f 111/178/2 109/177/2 115/174/2
f 113/179/2 111/178/2 115/174/2
f 101/173/2 113/179/2 115/174/2
f 104/180/6 103/181/6 116/182/6
f 103/181/6 106/183/6 116/182/6
f 106/183/6 108/184/6 116/182/6
f 108/184/6 110/185/6 116/182/6
f 110/185/6 112/186/6 116/182/6
f 112/186/6 114/187/6 116/182/6
f 114/187/6 104/180/6 116/182/6
f 117/188/97 118/189/97 119/190/97 120/191/97
f 118/189/98 121/192/98 122/193/98 119/190/98
f 121/192/13 123/194/13 124/195/13 122/193/13
f 123/194/99 125/196/99 126/197/99 124/195/99
f 125/196/100 127/198/100 128/199/100 126/197/100
f 127/198/101 129/200/101 130/201/101 128/199/101
f 129/200/102 117/202/102 120/203/102 130/201/102
f 118/204/2 117/205/2 131/206/2
f 121/207/2 118/204/2 131/206/2
f 123/208/2 121/207/2 131/206/2
f 125/209/2 123/208/2 131/206/2
f 127/210/2 125/209/2 131/206/2
f 129/211/2 127/210/2 131/206/2
f 117/205/2 129/211/2 131/206/2
f 120/212/6 119/213/6 132/214/6
f 119/213/6 122/215/6 132/214/6
f 122/215/6 124/216/6 132/214/6
f 124/216/6 126/217/6 132/214/6
f 126/217/6 128/218/6 132/214/6
f 128/218/6 130/219/6 132/214/6
f 130/219/6 120/212/6 132/214/6
f 133/220/97 134/221/97 135/222/97 136/223/97
f 134/221/98 137/224/98 138/225/98 135/222/98
f 137/224/13 139/226/13 140/227/13 138/225/13
f 139/226/99 141/228/99 142/229/99 140/227/99
f 141/228/100 143/230/100 144/231/100 142/229/100
f 143/230/101 145/232/101 146/233/101 144/231/101
f 145/232/102 133/234/102 136/235/102 146/233/102
f 134/236/2 133/237/2 147/238/2
f 137/239/2 134/236/2 147/238/2
f 139/240/2 137/239/2 147/238/2
f 141/241/2 139/240/2 147/238/2
f 143/242/2 141/241/2 147/238/2
f 145/243/2 143/242/2 147/238/2
f 133/237/2 145/243/2 147/238/2
f 136/244/6 135/245/6 148/246/6
f 135/245/6 138/247/6 148/246/6
f 138/247/6 140/248/6 148/246/6
f 140/248/6 142/249/6 148/246/6
f 142/249/6 144/250/6 148/246/6
f 144/250/6 146/251/6 148/246/6
f 146/251/6 136/244/6 148/246/6
f 149/252/97 150/253/97 151/254/97 152/255/97
f 150/253/98 153/256/98 154/257/98 151/254/98
f 153/256/13 155/258/13 156/259/13 154/257/13
f 155/258/99 157/260/99 158/261/99 156/259/99
f 157/260/100 159/262/100 160/263/100 158/261/100
f 159/262/101 161/264/101 162/265/101 160/263/101
f 161/264/102 149/266/102 152/267/102 162/265/102
f 150/268/2 149/269/2 163/270/2
f 153/271/2 150/268/2 163/270/2
f 155/272/2 153/271/2 163/270/2
f 157/273/2 155/272/2 163/270/2
f 159/274/2 157/273/2 163/270/2
f 161/275/2 159/274/2 163/270/2
f 149/269/2 161/275/2 163/270/2
f 152/276/6 151/277/6 164/278/6
f 151/277/6 154/279/6 164/278/6
f 154/279/6 156/280/6 164/278/6
f 156/280/6 158/281/6 164/278/6
f 158/281/6 160/282/6 164/278/6
f 160/282/6 162/283/6 164/278/6
f 162/283/6 152/276/6 164/278/6
